<svg xmlns="http://www.w3.org/2000/svg" viewBox="0 0 76 14" fill="none" role="img" aria-hidden="true">
  <g fill="#4D148C">
    <polygon points="0,1 0,13 2.2,13 2.2,8 7,8 7,6 2.2,6 2.2,3 7.5,3 7.5,1" />
    <path
      d="M10 5.5h1.8v1.2c.5-.9 1.4-1.4 2.5-1.4 1.6 0 2.7 1.1 2.7 2.8v4.4h-1.8V8.5c0-.9-.5-1.5-1.4-1.5s-1.5.6-1.5 1.6v3.9H10V5.5z"
    />
    <path
      d="M18.5 1h1.8v4.6c.5-.8 1.4-1.3 2.6-1.3 2 0 3.3 1.4 3.3 3.6V13h-1.8V8.6c0-1-.6-1.6-1.6-1.6s-1.6.7-1.6 1.8V13h-1.8V1z"
    />
  </g>
  <g fill="#FF6600">
    <polygon points="28,1 28,13 30.2,13 30.2,8.5 35,8.5 35,6.8 30.2,6.8 30.2,3.2 35.5,3.2 35.5,1" />
    <path d="M39 5.5h1.8l2.6 5.4 2.6-5.4h1.8L44.3 13h-2.1L39 5.5z" />
  </g>
</svg>
